<?xml version="1.0" standalone="no"?>
<!DOCTYPE svg PUBLIC "-//W3C//DTD SVG 1.1//EN" "http://www.w3.org/Graphics/SVG/1.1/DTD/svg11.dtd" >
<svg xmlns="http://www.w3.org/2000/svg" xmlns:xlink="http://www.w3.org/1999/xlink" version="1.1">
<metadata></metadata>
<defs>
<font id="arkhipregular" horiz-adv-x="1218" >
<font-face units-per-em="2048" ascent="1538" descent="-510" />
<missing-glyph horiz-adv-x="555" />
<glyph horiz-adv-x="0" />
<glyph horiz-adv-x="682" />
<glyph unicode=" "  horiz-adv-x="555" />
<glyph unicode="&#x09;" horiz-adv-x="555" />
<glyph unicode="&#xa0;" horiz-adv-x="555" />
<glyph unicode="!" horiz-adv-x="694" d="M231 121q0 -51 35 -86t86 -35t87 35t36 86t-36 87t-87 36t-86 -36t-35 -87zM248 1528h215q-26 -810 -31 -1127h-153q-5 317 -31 1127z" />
<glyph unicode="&#x22;" horiz-adv-x="819" d="M123 1554h233l-47 -493h-141zM463 1554h233l-49 -493h-141z" />
<glyph unicode="#" horiz-adv-x="1681" d="M102 449l23 180h334l53 311h-332l21 184h334l65 414h205l-64 -414h359l63 414h207l-63 -414h333l-20 -184h-338l-49 -311h336l-25 -180h-336l-71 -449h-207l71 449h-356l-76 -449h-204l71 449h-334zM668 629h358l51 311h-360z" />
<glyph unicode="$" horiz-adv-x="1515" d="M102 279l160 149q181 -220 428 -238v508q-254 8 -388 108.5t-134 287.5q0 89 39 172.5t106.5 148.5t166 107t210.5 49v133h197v-143q259 -39 459 -230l-140 -164q-91 73 -164 111t-155 53v-416q123 -9 214 -33.5t150.5 -62t95.5 -92.5t51 -118t15 -144 q0 -194 -145.5 -324t-380.5 -161v-144h-197v133q-169 9 -326 90t-262 220zM416 1096q0 -163 274 -176v423q-115 -12 -194.5 -84t-79.5 -163zM887 205q132 25 214.5 91t82.5 169q0 52 -16 91t-41.5 63.5t-65.5 40.5t-80.5 23.5t-93.5 10.5v-489z" />
<glyph unicode="%" horiz-adv-x="2107" d="M102 1051q0 125 65.5 219t167 140t218.5 46q87 0 166 -25.5t142.5 -74t101.5 -126.5t38 -175q0 -124 -65.5 -220t-167.5 -144t-219 -48t-218 47.5t-165 142.5t-64 218zM285 1049q0 -111 79.5 -170.5t188.5 -59.5q106 0 186 64.5t80 169.5q0 112 -78.5 169.5t-187.5 57.5 q-110 0 -189 -59.5t-79 -171.5zM385 -80l1108 1550h240l-1110 -1550h-238zM1106 324q0 125 65.5 219t166.5 140t218 46q87 0 166.5 -25.5t143 -74t101.5 -126.5t38 -175q0 -94 -38 -172.5t-102 -129.5t-145 -79.5t-168 -28.5q-117 0 -217.5 47t-164.5 141.5t-64 217.5z M1288 322q0 -111 79.5 -170.5t188.5 -59.5q106 0 186.5 64.5t80.5 169.5q0 58 -23 103t-61.5 71t-85 39.5t-97.5 13.5q-110 0 -189 -59.5t-79 -171.5z" />
<glyph unicode="&#x26;" horiz-adv-x="1781" d="M160 420q0 254 215 409q-69 46 -103 103.5t-34 138.5q0 59 14 121t53.5 132t99.5 124t161.5 89.5t230.5 35.5q313 0 503 -234l-139 -163q-68 90 -167.5 131t-200.5 41q-55 0 -109 -13t-105.5 -41t-83.5 -80.5t-32 -121.5q0 -88 64.5 -140.5t162.5 -52.5h225l-16 -223 h-213q-55 0 -107 -14.5t-97.5 -43t-73 -79t-27.5 -115.5q0 -234 336 -234q129 0 265.5 66.5t229.5 165.5l19 254h-158l19 223h526l-19 -223h-149l-49 -676h-217l12 190q-111 -99 -241.5 -154.5t-237.5 -55.5q-142 0 -250.5 32.5t-174.5 92.5t-99 139t-33 176z" />
<glyph unicode="'" horiz-adv-x="479" d="M123 1554h233l-47 -493h-141z" />
<glyph unicode="(" horiz-adv-x="872" d="M127 766q0 268 155.5 521.5t407.5 410.5l105 -129q-70 -50 -141.5 -131.5t-136 -186t-105.5 -235t-41 -256.5q0 -119 40 -247.5t102.5 -234.5t133 -191.5t137.5 -135.5l-135 -121q-234 186 -378 432t-144 504z" />
<glyph unicode=")" horiz-adv-x="872" d="M127 -41q70 48 142 130t136.5 186.5t105 234.5t40.5 256q0 119 -39.5 247t-102 234t-133 191t-137.5 137l135 123q233 -188 377 -435t144 -503q0 -268 -155 -521t-407 -409z" />
<glyph unicode="*" horiz-adv-x="894" d="M123 1083l141 111l-137 109l63 112l172 -61l25 176h129l27 -176l164 63l65 -114l-137 -109l135 -109l-61 -112l-166 61l-27 -172h-129l-25 172l-174 -65z" />
<glyph unicode="+" d="M123 657v191h391v385h191v-385h391v-191h-391v-385h-191v385h-391z" />
<glyph unicode="," horiz-adv-x="448" d="M74 -186q71 56 101 99.5t30 92.5q-44 6 -73.5 40.5t-29.5 80.5q0 51 35 87t86 36q64 0 97.5 -42t33.5 -104q0 -92 -65 -195.5t-168 -156.5z" />
<glyph unicode="-" d="M123 657v191h973v-191h-973z" />
<glyph unicode="." horiz-adv-x="448" d="M102 127q0 51 35 87t86 36t87 -36t36 -87t-36 -86t-87 -35t-86 35t-35 86z" />
<glyph unicode="/" horiz-adv-x="1290" d="M80 -57l852 1583h254l-856 -1583h-250z" />
<glyph unicode="0" horiz-adv-x="1572" d="M143 758q0 166 36.5 304t98.5 231t145 157.5t174 93.5t189 29t189 -29t174.5 -93.5t145.5 -157.5t98.5 -231t36.5 -304t-37 -301.5t-98.5 -225.5t-145 -151t-174.5 -88t-189 -27q-81 0 -158 19.5t-149.5 58.5t-133 104t-106 150.5t-71 203.5t-25.5 257zM362 758 q0 -144 34.5 -255.5t94 -179t134.5 -101.5t161 -34t161 34t134.5 101.5t94 179t34.5 255.5t-34.5 259t-94 186t-135 108t-160.5 37t-160.5 -37t-135 -108t-94 -186t-34.5 -259z" />
<glyph unicode="1" horiz-adv-x="757" d="M102 1077v281l211 182h219v-1540h-219v1251z" />
<glyph unicode="2" horiz-adv-x="1431" d="M164 0v223q15 40 33 74.5t35.5 63.5t43 57t46 49t54.5 46.5t58.5 42.5t67.5 44t72.5 44t83.5 48.5l90 52.5q77 45 133.5 94t84.5 85.5t44 75.5t19 59t3 41q0 14 -1 27.5t-7.5 40t-17 48.5t-33 47.5t-52.5 43t-77.5 29.5t-106.5 12q-99 0 -212 -52t-191 -133l-144 168 q107 101 257.5 171.5t289.5 70.5q103 0 186 -22.5t135.5 -56t91.5 -82t58 -90.5t30 -92t13 -76.5t2 -53.5q0 -34 -4 -67t-26.5 -95t-61 -119t-116 -128.5t-183.5 -133.5q-43 -25 -112.5 -64t-99.5 -56.5t-75.5 -47t-69 -50.5t-50 -51t-47.5 -65h860v-223h-1104z" />
<glyph unicode="3" horiz-adv-x="1531" d="M164 242l137 190q98 -122 223.5 -183t239.5 -61q160 0 271.5 84t111.5 217q0 119 -93 177.5t-259 58.5h-181v221l367 357h-666v225h957v-225l-379 -363q219 -22 347 -141t128 -310q0 -115 -48.5 -213.5t-131 -166t-192.5 -106t-232 -38.5q-151 0 -328 77.5t-272 199.5z " />
<glyph unicode="4" horiz-adv-x="1556" d="M133 391v223l756 926h276v-926h228l-84 -223h-144v-391h-225v391h-807zM414 614h526v670z" />
<glyph unicode="5" horiz-adv-x="1521" d="M154 242l137 186q97 -122 222 -181t241 -59q160 0 271.5 84t111.5 217q0 125 -98 208t-255 83q-67 0 -129 -10.5t-102.5 -26t-72 -31t-46.5 -26.5l-14 -10l-189 31l154 821h840v-225h-660l-69 -371q43 31 122.5 50t165.5 19q168 0 300 -68t203 -184.5t71 -259.5 q0 -115 -48.5 -213.5t-131 -166t-192.5 -106t-232 -38.5q-151 0 -328 77.5t-272 199.5z" />
<glyph unicode="6" horiz-adv-x="1464" d="M143 719q0 141 23.5 265.5t75 233.5t128 187t189.5 123t252 45q228 0 426 -117l-113 -194q-152 86 -313 86q-185 0 -302.5 -128t-137.5 -352q160 156 366 156q260 0 422 -150.5t162 -390.5q0 -142 -78.5 -261.5t-212.5 -188t-293 -68.5q-175 0 -311 85t-211 220 q-26 46 -41.5 101t-21.5 122.5t-7.5 110t-1.5 115.5zM389 483q0 -126 102.5 -210.5t245.5 -84.5q150 0 255.5 85.5t105.5 209.5q0 144 -94.5 233t-266.5 89q-165 0 -256.5 -90.5t-91.5 -231.5z" />
<glyph unicode="7" horiz-adv-x="1357" d="M123 1303v225h1112v-221l-670 -1307h-266l682 1303h-858z" />
<glyph unicode="8" horiz-adv-x="1472" d="M143 453q0 121 65.5 225.5t178.5 171.5q-147 124 -147 299q0 115 66 212.5t180 154.5t249 57q134 0 248 -57t181 -154.5t67 -212.5q0 -171 -148 -299q112 -68 179 -172.5t67 -224.5q0 -133 -80.5 -245.5t-217 -177.5t-296.5 -65t-296.5 65t-216 177.5t-79.5 245.5z M369 453q0 -112 106 -188.5t260 -76.5q153 0 261 76.5t108 188.5q0 114 -108.5 195t-260.5 81q-153 0 -259.5 -81t-106.5 -195zM463 1149q0 -85 79 -145t193 -60q115 0 194 61t79 144q0 84 -80 141.5t-193 57.5q-114 0 -193 -57.5t-79 -141.5z" />
<glyph unicode="9" horiz-adv-x="1464" d="M143 1053q0 142 78.5 262t212.5 189t293 69q175 0 311 -85.5t211 -221.5q26 -46 41.5 -101t21.5 -122.5t7.5 -110t1.5 -115.5q0 -141 -23.5 -265t-75 -233t-128 -186.5t-189.5 -122.5t-252 -45q-232 0 -426 115l113 194q152 -86 313 -86q185 0 303 128t138 352 q-160 -156 -367 -156q-260 0 -422 150.5t-162 390.5zM367 1053q0 -144 94 -233t266 -89q165 0 256.5 90.5t91.5 231.5q0 126 -102.5 210.5t-245.5 84.5q-150 0 -255 -85.5t-105 -209.5z" />
<glyph unicode=":" horiz-adv-x="448" d="M102 127q0 51 35 87t86 36t87 -36t36 -87t-36 -86t-87 -35t-86 35t-35 86zM102 936q0 51 35 87t86 36t87 -36t36 -87t-36 -86t-87 -35t-86 35t-35 86z" />
<glyph unicode=";" horiz-adv-x="448" d="M74 -186q71 56 101 99.5t30 92.5q-44 6 -73.5 40.5t-29.5 80.5q0 51 35 87t86 36q64 0 97.5 -42t33.5 -104q0 -92 -65 -195.5t-168 -156.5zM102 936q0 51 35 87t86 36t87 -36t36 -87t-36 -86t-87 -35t-86 35t-35 86z" />
<glyph unicode="&#x3c;" horiz-adv-x="1042" d="M143 459v200l797 521v-267l-567 -354l567 -354v-266z" />
<glyph unicode="=" d="M123 473v191h973v-191h-973zM123 842v190h973v-190h-973z" />
<glyph unicode="&#x3e;" horiz-adv-x="1042" d="M102 -61v266l568 354l-568 354v267l797 -521v-200z" />
<glyph unicode="?" horiz-adv-x="1247" d="M102 1331q99 111 225.5 176.5t301.5 65.5q116 0 209 -29.5t149 -75.5t93 -105.5t51 -114t14 -107.5q0 -93 -18 -159.5t-64 -125t-112.5 -106.5t-176.5 -109q-30 -17 -39.5 -23t-30.5 -21.5t-28 -29t-17.5 -37.5t-14 -55.5t-3.5 -73.5h-143q0 5 -6.5 66.5t-6.5 91.5 q0 90 37.5 157t136.5 113q68 31 111.5 57.5t81 62.5t55 83.5t17.5 108.5q0 30 -13.5 62.5t-44 66.5t-92 56t-145.5 22q-89 0 -160.5 -25.5t-117 -61t-105.5 -98.5zM453 86q0 51 34.5 87t85.5 36t87 -36t36 -87t-36 -85t-87 -34t-85.5 34t-34.5 85z" />
<glyph unicode="@" horiz-adv-x="2088" d="M143 758q0 158 46 290.5t128.5 228.5t195.5 163t248 100t286 33q150 0 284 -27.5t247 -85.5t194.5 -141.5t127.5 -202t46 -260.5q0 -98 -35.5 -188t-91.5 -152t-126 -98.5t-139 -36.5q-188 0 -276 96q-24 -43 -90.5 -68.5t-140.5 -25.5q-390 0 -390 254q0 71 26.5 120 t77 75.5t112 37.5t143.5 11q18 0 53 -2t53 -2q91 0 97 34q0 35 -46.5 68t-123.5 33q-129 0 -193 -72l-156 82q71 85 154.5 113t194.5 28q80 0 144 -24t103 -61.5t65 -86.5t36 -94.5t10 -89.5v-121q0 -65 36 -102t111 -37q86 0 147.5 91t61.5 220q0 157 -99 281t-261.5 190 t-355.5 66q-135 0 -263 -44t-228.5 -121.5t-162 -196t-61.5 -255.5q0 -145 58.5 -267t157.5 -202t226.5 -124t267.5 -44q214 0 324 86l117 -153q-169 -109 -439 -109q-137 0 -268.5 34t-245.5 102t-200.5 161.5t-136.5 221.5t-50 274zM844 633q0 -43 48 -63.5t157 -20.5 q24 0 46 2.5t54.5 15t55.5 33.5t40 62t17 96q-59 -41 -179 -41h-36q-48 0 -74.5 -1t-55 -5.5t-42 -13.5t-22.5 -24.5t-9 -39.5z" />
<glyph unicode="A" horiz-adv-x="1660" d="M41 0l661 1366l-84 188h246l735 -1554h-249l-101 223h-465q-190 0 -310 -47t-152 -104l-39 -72h-242zM477 362q102 87 389 87h283l-334 645z" />
<glyph unicode="B" horiz-adv-x="1667" d="M225 0v1528h774q199 0 325 -111t126 -307q0 -100 -35.5 -179.5t-101.5 -121.5q88 -41 149.5 -142t61.5 -249q0 -88 -30.5 -159.5t-81 -119t-119 -79.5t-142 -46t-152.5 -14h-774zM446 223h576q67 0 128.5 22.5t107 75t45.5 125.5q0 64 -26 109.5t-71.5 69.5t-96 34.5 t-110.5 10.5h-262q-175 0 -291 -62v-385zM446 836q106 61 291 61h262q106 0 167 54t61 157q0 195 -228 195h-553v-467z" />
<glyph unicode="C" horiz-adv-x="1671" d="M123 786q0 165 67.5 312.5t179.5 251t263 163.5t313 60q169 0 321.5 -64t266.5 -178l-143 -168q-84 87 -201 136t-246 49q-169 0 -306 -74.5t-216.5 -209.5t-79.5 -304q0 -121 49.5 -228t132.5 -182t193.5 -118.5t228.5 -43.5q147 0 274 64t212 176l137 -186 q-117 -131 -280 -204t-345 -73q-228 0 -416.5 108.5t-296.5 297t-108 415.5z" />
<glyph unicode="D" horiz-adv-x="1714" d="M92 1528h778q203 0 369.5 -103t259 -276.5t92.5 -378.5q0 -154 -60.5 -304t-166.5 -263q-102 -110 -216.5 -156.5t-270.5 -46.5h-566v1303h-121zM530 223h347q144 0 257 73.5t172.5 194t59.5 263.5q0 111 -33.5 210t-95 175t-156 120t-209.5 44h-342v-1080z" />
<glyph unicode="E" horiz-adv-x="1523" d="M225 0v1528h1075v-225h-851v-463q63 36 130.5 47.5t157.5 11.5h334v-227h-334q-175 0 -288 -60v-389h942v-223h-1166z" />
<glyph unicode="F" horiz-adv-x="1423" d="M225 0v1528h1075v-225h-851v-463q63 36 130.5 47.5t157.5 11.5h334v-227h-334q-175 0 -288 -60v-612h-224z" />
<glyph unicode="G" horiz-adv-x="1722" d="M123 786q0 165 67.5 312.5t179.5 251t263 163.5t313 60q169 0 321.5 -64t266.5 -178l-143 -168q-84 87 -201 136t-246 49q-169 0 -306 -74.5t-216.5 -209.5t-79.5 -304q0 -121 49.5 -228t132.5 -182t193.5 -118.5t228.5 -43.5q231 0 402 148v278h-197l-96 222h514v-594 q-117 -131 -280 -204t-345 -73q-228 0 -416.5 108.5t-296.5 297t-108 415.5z" />
<glyph unicode="H" horiz-adv-x="1794" d="M225 0v1528h221v-627q81 41 195 41q39 0 230.5 -22.5t267.5 -22.5q118 0 207 39v592h223v-1528h-223v711q-89 -39 -207 -39q-76 0 -267.5 22.5t-230.5 22.5q-114 0 -195 -41v-676h-221z" />
<glyph unicode="I" horiz-adv-x="669" d="M225 0v1528h219v-1528h-219z" />
<glyph unicode="J" horiz-adv-x="1382" d="M41 145l113 197q5 -6 15.5 -16.5t47.5 -37.5t80.5 -47.5t115 -37.5t150.5 -17q60 0 111.5 14.5t87 39t64.5 56.5t47 67t31 70t19 67t9 56.5t4 39.5v14v693h-326l-98 225h645v-924q0 -136 -37.5 -247t-97.5 -182t-139.5 -120t-159.5 -69.5t-162 -20.5q-138 0 -281.5 48.5 t-238.5 131.5z" />
<glyph unicode="K" horiz-adv-x="1689" d="M225 0v1528h224v-1141l776 1141h268l-502 -719l275 -412q65 -98 122.5 -135t114.5 -37h15l49 2v-227q-130 0 -156 3q-118 12 -206 96q-56 53 -113 143l-232 370l-411 -612h-224z" />
<glyph unicode="L" horiz-adv-x="1337" d="M225 0v1528h224v-1305h847v-223h-1071z" />
<glyph unicode="M" horiz-adv-x="2019" d="M92 1528h289l625 -750l632 750h289l-178 -215v-1313h-219v1051l-522 -625l-519 625v-1051h-219v1313z" />
<glyph unicode="N" horiz-adv-x="1812" d="M92 1528h289l981 -1168v1168h225v-1528h-221l-877 1051v-1051h-219v1313z" />
<glyph unicode="O" horiz-adv-x="1890" d="M123 786q0 165 67.5 312.5t179.5 251t263 163.5t313 60q167 0 319 -63t262 -170.5t175 -258.5t65 -319q0 -165 -67 -314t-178.5 -254.5t-262.5 -167t-315 -61.5q-228 0 -416.5 108.5t-296.5 297t-108 415.5zM342 760q0 -121 49.5 -228t132.5 -182t193.5 -118.5 t228.5 -43.5q121 0 231.5 45.5t191.5 123t129 186.5t48 231q0 164 -82.5 296.5t-220 205t-299.5 72.5q-169 0 -306 -74.5t-216.5 -209.5t-79.5 -304z" />
<glyph unicode="P" horiz-adv-x="1558" d="M225 0v1528h785q204 0 325 -116.5t121 -319.5q0 -202 -121.5 -322.5t-324.5 -120.5h-271q-175 0 -290 -61v-588h-224zM449 813q106 61 290 61h271q225 0 225 218q0 113 -56 163t-169 50h-561v-492z" />
<glyph unicode="Q" horiz-adv-x="1923" d="M123 786q0 165 67.5 312.5t179.5 251t263 163.5t313 60q167 0 319 -63t262 -170.5t175 -258.5t65 -319q0 -291 -196 -516q126 -79 229 -86l-112 -195q-80 8 -145.5 40t-147.5 89q-201 -129 -451 -129q-228 0 -416.5 108.5t-296.5 297t-108 415.5zM342 760 q0 -121 49.5 -228t132.5 -182t193.5 -118.5t228.5 -43.5q130 0 250 54q-106 79 -165 108t-140 33l113 195q87 -5 145.5 -36t193.5 -131q30 -22 46 -34q157 167 157 397q0 164 -82.5 296.5t-220 205t-299.5 72.5q-169 0 -306 -74.5t-216.5 -209.5t-79.5 -304z" />
<glyph unicode="R" horiz-adv-x="1720" d="M225 0v1528h803q215 0 348 -119.5t133 -331.5q0 -171 -92 -282.5t-260 -153.5l119 -244q73 -108 115 -140t114 -33h23l49 3v-227q-51 0 -77.5 0.5t-73.5 5t-75 13.5t-68 26.5t-68 42.5t-58.5 64t-54.5 90l-187 391h-178q-175 0 -288 -60v-573h-224zM449 797 q63 36 130.5 47.5t157.5 11.5h291q121 0 190.5 58t69.5 176q0 113 -71 164t-189 51h-579v-508z" />
<glyph unicode="S" horiz-adv-x="1515" d="M102 279l160 149q200 -240 469 -240q118 0 218 28.5t167.5 93t67.5 155.5q0 56 -16.5 98t-54 66.5t-71.5 39.5t-97.5 20.5t-101.5 7t-112 1.5q-275 0 -419 101t-144 295q0 92 42.5 179t115.5 153.5t179 106.5t226 40q180 0 331.5 -57t283.5 -185l-140 -164 q-125 101 -228 141t-247 40q-128 0 -221.5 -75.5t-93.5 -176.5q0 -176 325 -176q158 0 275 -20t193 -56.5t121.5 -94t64 -125.5t18.5 -159q0 -150 -90 -265t-244 -175t-348 -60q-177 0 -346 83t-283 231z" />
<glyph unicode="T" horiz-adv-x="1423" d="M61 1303v225h1301v-225h-539v-1303h-217v1303h-545z" />
<glyph unicode="U" horiz-adv-x="1781" d="M205 594v934h221v-934q0 -196 121 -301t344 -105t344 105t121 301v934h221v-934q0 -298 -181 -463.5t-505 -165.5t-505 165.5t-181 463.5z" />
<glyph unicode="V" horiz-adv-x="1658" d="M61 1528h242l522 -1278l527 1278h245l-641 -1528h-264z" />
<glyph unicode="W" horiz-adv-x="2213" d="M72 1528h229l406 -1143l286 901l-78 242h230l385 -1143l377 1143h235l-487 -1528h-242l-295 903l-287 -903h-241z" />
<glyph unicode="X" horiz-adv-x="1685" d="M82 0l627 829l-504 699h270l377 -510l383 510h276l-518 -699l611 -829h-283l-469 643l-485 -643h-285z" />
<glyph unicode="Y" horiz-adv-x="1462" d="M51 1528h256q64 -177 175 -352t249 -320q138 145 249 320t175 352h256q-195 -458 -569 -866v-662h-221v662q-376 411 -570 866z" />
<glyph unicode="Z" horiz-adv-x="1447" d="M102 0v225l861 1078h-813v225h1120v-217l-889 -1088h965v-223h-1244z" />
<glyph unicode="[" horiz-adv-x="1079" d="M653 -141v1796h365v-164h-164v-1475h164v-157h-365z" />
<glyph unicode="\" horiz-adv-x="1290" d="M80 1526h254l852 -1583h-250z" />
<glyph unicode="]" horiz-adv-x="528" d="M61 16h164v1475h-164v164h365v-1796h-365v157z" />
<glyph unicode="^" horiz-adv-x="1820" d="M436 891l383 647h182l383 -647h-217l-256 461l-258 -461h-217z" />
<glyph unicode="_" horiz-adv-x="1433" d="M0 -72h1434v-182h-1434v182z" />
<glyph unicode="`" horiz-adv-x="608" d="M102 1915h240l164 -250h-187z" />
<glyph unicode="a" horiz-adv-x="1382" d="M61 0l508 952l-69 133h227l573 -1085h-231l-84 160h-127q-178 0 -357.5 -53.5t-211.5 -94.5l-6 -12h-222zM426 260q179 92 430 92h29l-207 393z" />
<glyph unicode="b" horiz-adv-x="1437" d="M246 0v1061h651q134 0 228 -84t94 -215q0 -117 -70 -182q59 -35 92 -102t33 -146q0 -156 -100.5 -244t-276.5 -88h-651zM457 213h440q76 0 121 26.5t45 96.5q0 119 -166 119h-109q-141 0 -200 -12t-131 -50v-180zM457 608q108 62 331 62h109q107 0 107 92q0 42 -29.5 65 t-77.5 23h-440v-242z" />
<glyph unicode="c" horiz-adv-x="1327" d="M143 535q0 105 34.5 196t95 157t140 113.5t170.5 71t187 23.5q249 0 426 -133l-141 -164q-122 84 -285 84q-79 0 -150 -22t-128 -64t-91 -111t-34 -156t34.5 -155.5t92.5 -110t129 -63t149 -21.5q84 0 166 30t143 85l123 -176q-87 -74 -200 -113t-236 -39 q-97 0 -188.5 24.5t-170.5 73t-138.5 115.5t-93.5 158.5t-34 196.5z" />
<glyph unicode="d" horiz-adv-x="1449" d="M113 1061h657q245 0 391 -136.5t146 -385.5q0 -247 -146.5 -393t-390.5 -146h-432v850h-131zM559 213h211q154 0 238 84t84 238t-83.5 234.5t-238.5 80.5h-211v-637z" />
<glyph unicode="e" horiz-adv-x="1273" d="M246 0v1061h835v-211h-626v-258q63 36 143 48.5t188 12.5h156v-211h-156q-142 0 -200.5 -11.5t-130.5 -49.5v-168h665v-213h-874z" />
<glyph unicode="f" horiz-adv-x="1183" d="M246 0v1061h794v-211h-585v-258q63 36 143 48.5t188 12.5h115v-211h-115q-142 0 -200.5 -11.5t-130.5 -49.5v-381h-209z" />
<glyph unicode="g" horiz-adv-x="1378" d="M143 535q0 105 34.5 196t95 157t140 113.5t170.5 71t187 23.5q249 0 426 -133l-141 -164q-122 84 -285 84q-79 0 -150 -22t-128 -64t-91 -111t-34 -156t34.5 -155.5t92.5 -110t129 -63t149 -21.5q117 0 223 56v170h-108l-90 198h407v-485q-87 -74 -200 -113t-236 -39 q-97 0 -188.5 24.5t-170.5 73t-138.5 115.5t-93.5 158.5t-34 196.5z" />
<glyph unicode="h" horiz-adv-x="1486" d="M246 0v1061h209v-424q59 27 125 27q42 0 153 -15.5t166 -15.5q77 0 133 26v402h209v-1061h-209v444q-53 -26 -125 -26q-56 0 -162 14t-157 14q-76 0 -133 -24v-422h-209z" />
<glyph unicode="i" horiz-adv-x="700" d="M246 0v1061h209v-1061h-209z" />
<glyph unicode="j" horiz-adv-x="1116" d="M61 47l111 193q63 -60 225 -60q112 0 188.5 54.5t76.5 162.5v453h-254l-95 211h557v-664q0 -105 -38.5 -188t-105.5 -135t-155 -79.5t-190 -27.5q-72 0 -170.5 23t-149.5 57z" />
<glyph unicode="k" horiz-adv-x="1429" d="M246 0v1061h223v-680l489 680h271l-350 -477l155 -262q42 -59 84.5 -77t93.5 -18h74v-227h-92q-47 0 -78.5 5t-69.5 21t-76.5 51t-84.5 91l-148 242l-268 -410h-223z" />
<glyph unicode="l" horiz-adv-x="1089" d="M246 0v1061h219v-848h563v-213h-782z" />
<glyph unicode="m" horiz-adv-x="1646" d="M113 1061h258l452 -600l453 600h258l-104 -170v-891h-232v621l-375 -500l-374 500v-621h-232v891z" />
<glyph unicode="n" horiz-adv-x="1474" d="M113 1061h264l641 -737v737h211v-1061h-211l-590 690v-690h-211v903z" />
<glyph unicode="o" horiz-adv-x="1540" d="M143 535q0 105 34.5 196t95 157t140 113.5t170.5 71t187 23.5q97 0 188 -22t170.5 -67.5t139.5 -110.5t94.5 -156t34.5 -199q0 -131 -53 -241t-141 -181.5t-201 -111.5t-234 -40q-97 0 -188.5 24.5t-170.5 73t-138.5 115.5t-93.5 158.5t-34 196.5zM365 530 q0 -87 34.5 -155t93 -109.5t130 -62.5t149.5 -21q103 0 193.5 40.5t150.5 123.5t60 193q0 69 -23 126.5t-62 96.5t-91.5 66t-110 39t-119.5 12q-79 0 -150 -21.5t-129 -62.5t-92 -109.5t-34 -155.5z" />
<glyph unicode="p" horiz-adv-x="1388" d="M246 0v1061h674q155 0 250.5 -91.5t95.5 -244.5q0 -157 -102.5 -249.5t-280.5 -92.5h-95q-142 0 -202 -11.5t-131 -49.5v-322h-209zM455 532q108 62 333 62h95q85 0 126.5 26.5t41.5 106.5q0 37 -13.5 62.5t-39 38t-52.5 17.5t-63 5h-428v-318z" />
<glyph unicode="q" horiz-adv-x="1540" d="M143 535q0 105 34.5 196t95 157t140 113.5t170.5 71t187 23.5q97 0 188 -22t170.5 -67.5t139.5 -110.5t94.5 -156t34.5 -199q0 -195 -113 -340q63 -33 113 -35l-109 -184q-80 7 -176 73q-163 -88 -344 -88q-97 0 -188.5 24.5t-170.5 73t-138.5 115.5t-93.5 158.5 t-34 196.5zM365 530q0 -87 34.5 -155t93 -109.5t130 -62.5t149.5 -21q70 0 137 21q-4 0 -4 2q-70 39 -127 47l109 186q57 -6 104 -31.5t119 -82.5q80 93 80 215q0 86 -37 153t-98 106.5t-134 60t-151 20.5q-79 0 -150 -21.5t-129 -62.5t-92 -109.5t-34 -155.5z" />
<glyph unicode="r" horiz-adv-x="1501" d="M246 0v1061h684q146 0 240 -91t94 -229q0 -235 -244 -309l65 -110q56 -95 179 -95h73v-227h-92q-40 0 -66 2t-61.5 11t-63 26.5t-59 50t-59.5 78.5l-164 266h-14q-118 0 -173 -12.5t-124 -48.5v-373h-215zM461 584q111 61 297 61h172q50 0 84.5 27t34.5 76q0 34 -13 55.5 t-38 31t-48.5 12.5t-56.5 3h-432v-266z" />
<glyph unicode="s" horiz-adv-x="1263" d="M123 193l151 153q3 -4 21 -23.5t25 -26.5t25.5 -25t30.5 -26t33 -22.5t40.5 -21t44 -15t52 -11.5t58.5 -3q148 0 238 45t90 127q0 69 -76 93t-252 24q-133 0 -227.5 29.5t-152.5 101.5t-58 184q0 141 128 230.5t310 89.5q126 0 235.5 -29t219.5 -104l-141 -164 q-111 92 -316 92q-79 0 -147 -35t-68 -80q0 -27 7.5 -44t30 -32.5t70.5 -22.5t123 -7q132 0 228 -18t152 -46.5t89 -73t43.5 -88t10.5 -100.5q0 -123 -72 -209.5t-191 -127t-274 -40.5q-136 0 -264 61t-217 165z" />
<glyph unicode="t" horiz-adv-x="1159" d="M82 850v211h995v-211h-399v-850h-211v850h-385z" />
<glyph unicode="u" horiz-adv-x="1474" d="M225 416v645h211v-645q0 -128 78 -182t223 -54t223 54t78 182v645h211v-645q0 -224 -139 -336.5t-371 -112.5h-4q-232 0 -371 112.5t-139 336.5z" />
<glyph unicode="v" horiz-adv-x="1366" d="M82 1061h237l359 -846l366 846h240l-469 -1061h-272z" />
<glyph unicode="w" horiz-adv-x="1730" d="M92 1061h227l275 -778l139 501l-86 277h240l241 -778l285 778h225l-372 -1061h-285l-133 420l-109 -420h-280z" />
<glyph unicode="x" horiz-adv-x="1384" d="M102 0l451 561l-391 500h289l249 -320l256 320h281l-397 -498l442 -563h-287l-301 381l-303 -381h-289z" />
<glyph unicode="y" horiz-adv-x="1236" d="M72 1061h266l283 -418l290 418h254l-438 -633v-428h-209v428z" />
<glyph unicode="z" horiz-adv-x="1124" d="M123 0v213l559 637h-539v211h818v-211l-560 -637h600v-213h-878z" />
<glyph unicode="{" horiz-adv-x="696" d="M102 711v120q105 0 137.5 29t32.5 125v422q0 149 81 211.5t282 62.5v-135q-103 0 -138.5 -27.5t-35.5 -107.5v-395q0 -193 -123 -248q65 -29 93 -87.5t28 -154.5v-411q0 -78 36.5 -105.5t139.5 -27.5v-136q-200 0 -280.5 62.5t-80.5 210.5v436q0 47 -5 73.5t-23 47 t-52 28t-92 7.5z" />
<glyph unicode="|" horiz-adv-x="761" d="M287 -510v2046h188v-2046h-188z" />
<glyph unicode="}" horiz-adv-x="696" d="M61 -18q103 0 140 27.5t37 105.5v411q0 96 28 154.5t92 87.5q-122 54 -122 248v395q0 79 -36 107t-139 28v135q201 0 282 -62.5t81 -211.5v-422q0 -96 32.5 -125t137.5 -29v-120q-58 0 -92 -7.5t-52 -28t-23 -47t-5 -73.5v-436q0 -148 -80.5 -210.5t-280.5 -62.5v136z " />
<glyph unicode="~" horiz-adv-x="1353" d="M143 557q58 71 142.5 123.5t154.5 52.5q57 0 122 -19t114 -41.5t109.5 -41.5t109.5 -19q61 0 104.5 31t87.5 86l123 -147q-34 -38 -57 -59.5t-63.5 -52.5t-86 -46.5t-96.5 -15.5q-65 0 -134 20t-117.5 43.5t-105 43.5t-99.5 20q-42 0 -96 -41.5t-89 -83.5z" />
<glyph unicode="&#xa4;" horiz-adv-x="1705" />
<glyph unicode="&#xa6;" horiz-adv-x="1705" />
<glyph unicode="&#xa7;" horiz-adv-x="1236" d="M143 106l144 123q143 -102 303 -102q133 0 211 40t78 126q0 51 -40.5 83t-113.5 60l-313 119q-254 95 -254 315q0 58 31.5 114t76.5 91q-69 75 -69 187q0 67 26.5 121.5t68.5 89.5t97.5 58.5t111.5 33.5t113 10q113 0 234.5 -41.5t202.5 -120.5l-156 -108q-65 42 -139 66 t-138 24q-109 0 -164 -28.5t-55 -98.5q0 -45 36.5 -80.5t94.5 -57.5l314 -116q108 -40 179 -118.5t71 -182.5q0 -111 -113 -195q96 -92 96 -223q0 -162 -133.5 -252t-355.5 -90q-115 0 -234.5 37.5t-210.5 115.5zM356 877q0 -53 41.5 -88.5t116.5 -63.5l313 -119 q62 37 62 99q0 47 -29.5 77t-93.5 56l-348 141q-62 -43 -62 -102z" />
<glyph unicode="&#xa9;" horiz-adv-x="1882" d="M143 762q0 162 63 309.5t170 254.5t254.5 170t309.5 63q163 0 311 -63t255 -170t170 -254.5t63 -309.5t-63 -309.5t-170 -253.5t-254.5 -169t-309.5 -63q-163 0 -311 63t-255 169t-170 253.5t-63 309.5zM303 762q0 -130 50.5 -248t136 -204t203.5 -136.5t247 -50.5 q130 0 248.5 50.5t204 136.5t136 204t50.5 248t-50.5 248t-135.5 203t-203 135.5t-248 50.5q-174 0 -321 -85t-232.5 -232t-85.5 -320zM483 770q0 101 41 184.5t109 136.5t153.5 82t178.5 29q192 0 327 -102l-108 -125q-94 63 -219 63q-82 0 -151 -28t-115 -91t-46 -151 t47 -151t116.5 -91t150.5 -28q63 0 126.5 23.5t110.5 64.5l94 -135q-139 -117 -335 -117q-94 0 -180 30t-153 84.5t-107 138t-40 183.5z" />
<glyph unicode="&#xab;" horiz-adv-x="1241" d="M143 539l275 395h205l-236 -395l236 -402h-205zM618 539l275 395h205l-236 -395l236 -402h-205z" />
<glyph unicode="&#xac;" horiz-adv-x="1705" />
<glyph unicode="&#xad;" horiz-adv-x="796" d="M0 496v194h797v-194h-797z" />
<glyph unicode="&#xae;" horiz-adv-x="1882" d="M143 762q0 162 63 309.5t170 254.5t254.5 170t309.5 63q163 0 311 -63t255 -170t170 -254.5t63 -309.5t-63 -309.5t-170 -253.5t-254.5 -169t-309.5 -63q-163 0 -311 63t-255 169t-170 253.5t-63 309.5zM303 762q0 -130 50.5 -248t136 -204t203.5 -136.5t247 -50.5 q130 0 248.5 50.5t204 136.5t136 204t50.5 248t-50.5 248t-135.5 203t-203 135.5t-248 50.5q-174 0 -321 -85t-232.5 -232t-85.5 -320zM551 373v805h518q110 0 182 -69t72 -173q0 -177 -186 -236l51 -84q44 -71 135 -71h55v-172h-69q-39 0 -63 3t-57 14t-61 38.5t-55 71.5 l-123 202h-12q-89 0 -130.5 -9.5t-94.5 -37.5v-282h-162zM713 815q85 47 225 47h131q39 0 64.5 20.5t25.5 57.5q0 26 -10 42.5t-29 23.5t-36.5 9.5t-43.5 2.5h-327v-203z" />
<glyph unicode="&#xb0;" horiz-adv-x="792" d="M143 1319q0 106 74 180t178 74q106 0 180 -74t74 -178q0 -106 -74 -180t-178 -74q-106 0 -180 74t-74 178zM279 1319q0 -49 34 -83t82 -34t83.5 34t35.5 83q0 48 -35 83.5t-84 35.5t-82.5 -35.5t-33.5 -83.5z" />
<glyph unicode="&#xb1;" horiz-adv-x="1259" d="M143 0h973v-190h-973v190zM143 449v190h392v319h190v-319h391v-190h-391v-328h-190v328h-392z" />
<glyph unicode="&#xb5;" horiz-adv-x="1433" d="M205 -311v1372h211v-645q0 -63 18 -108.5t44.5 -69.5t70 -37.5t80 -17t88.5 -3.5q69 0 121 11t95 36.5t65 73t22 115.5v645h209v-1061h-199v111q-28 -41 -122 -92.5t-195 -51.5q-100 0 -186 42t-111 93v-413h-211z" />
<glyph unicode="&#xb6;" horiz-adv-x="1540" d="M143 1071q0 105 30 186.5t80.5 133t123 85t151.5 47t172 13.5h697v-1536h-211v1331h-166v-1331h-217v614h-103q-93 0 -172.5 13.5t-151.5 46.5t-122.5 84t-80.5 130.5t-30 182.5zM367 1075q0 -141 85 -198.5t248 -57.5h103v512h-103q-163 0 -248 -57.5t-85 -198.5z" />
<glyph unicode="&#xb7;" horiz-adv-x="757" d="M236 788q0 60 41.5 104t101.5 44q61 0 102 -43.5t41 -104.5q0 -60 -41.5 -103.5t-101.5 -43.5q-61 0 -102 43t-41 104z" />
<glyph unicode="&#xbb;" horiz-adv-x="1241" d="M143 137l238 402l-238 395h205l277 -395l-277 -402h-205zM618 137l236 402l-236 395h205l275 -395l-275 -402h-205z" />
<glyph unicode="&#x2000;" horiz-adv-x="957" />
<glyph unicode="&#x2001;" horiz-adv-x="1915" />
<glyph unicode="&#x2002;" horiz-adv-x="957" />
<glyph unicode="&#x2003;" horiz-adv-x="1915" />
<glyph unicode="&#x2004;" horiz-adv-x="638" />
<glyph unicode="&#x2005;" horiz-adv-x="478" />
<glyph unicode="&#x2006;" horiz-adv-x="319" />
<glyph unicode="&#x2007;" horiz-adv-x="319" />
<glyph unicode="&#x2008;" horiz-adv-x="239" />
<glyph unicode="&#x2009;" horiz-adv-x="383" />
<glyph unicode="&#x200a;" horiz-adv-x="106" />
<glyph unicode="&#x2010;" d="M123 657v191h973v-191h-973z" />
<glyph unicode="&#x2011;" d="M123 657v191h973v-191h-973z" />
<glyph unicode="&#x2012;" d="M123 657v191h973v-191h-973z" />
<glyph unicode="&#x2013;" horiz-adv-x="796" d="M0 496v194h797v-194h-797z" />
<glyph unicode="&#x2014;" horiz-adv-x="2084" d="M0 496v194h2085v-194h-2085z" />
<glyph unicode="&#x2018;" horiz-adv-x="489" d="M111 1245q0 94 65 197.5t168 156.5l47 -61q-71 -56 -101 -100t-30 -95q44 -6 73 -40t29 -80q0 -51 -34.5 -87t-85.5 -36q-64 0 -97.5 42t-33.5 103z" />
<glyph unicode="&#x2019;" horiz-adv-x="489" d="M88 1114q71 56 101 100t30 95q-44 6 -73 40.5t-29 80.5q0 51 35 86.5t86 35.5q64 0 97.5 -42t33.5 -103q0 -93 -65.5 -197t-168.5 -157z" />
<glyph unicode="&#x201a;" horiz-adv-x="448" d="M74 -186q71 56 101 99.5t30 92.5q-44 6 -73.5 40.5t-29.5 80.5q0 51 35 87t86 36q64 0 97.5 -42t33.5 -104q0 -92 -65 -195.5t-168 -156.5z" />
<glyph unicode="&#x201c;" horiz-adv-x="813" d="M115 1260q0 94 65 197.5t168 156.5l47 -62q-71 -56 -101 -100t-30 -94q44 -6 73.5 -40.5t29.5 -80.5q0 -51 -35 -87t-86 -36q-64 0 -97.5 42t-33.5 104zM442 1260q0 93 65.5 197t168.5 157l47 -62q-71 -56 -101 -100t-30 -94q44 -6 73 -40.5t29 -80.5q0 -51 -35 -87 t-86 -36q-64 0 -97.5 42t-33.5 104z" />
<glyph unicode="&#x201d;" horiz-adv-x="813" d="M94 1116q71 56 101 100t30 95q-44 6 -73 40.5t-29 80.5q0 51 35 86.5t86 35.5q64 0 97.5 -42t33.5 -103q0 -93 -65.5 -197t-168.5 -157zM422 1116q71 56 101 100t30 95q-44 6 -73 40.5t-29 80.5q0 51 34.5 86.5t85.5 35.5q64 0 97.5 -42t33.5 -103q0 -94 -65 -197.5 t-168 -156.5z" />
<glyph unicode="&#x201e;" horiz-adv-x="772" d="M74 -186q71 56 101 99.5t30 92.5q-44 6 -73.5 40.5t-29.5 80.5q0 51 35 87t86 36q64 0 97.5 -42t33.5 -104q0 -92 -65 -195.5t-168 -156.5zM401 -186q71 56 101 99.5t30 92.5q-44 6 -73 40.5t-29 80.5q0 51 35 87t86 36q64 0 97.5 -42t33.5 -104q0 -92 -65 -195.5 t-168 -156.5z" />
<glyph unicode="&#x2022;" horiz-adv-x="782" d="M143 842q0 103 72.5 175.5t175.5 72.5t175.5 -72.5t72.5 -175.5t-72.5 -175.5t-175.5 -72.5t-175.5 72.5t-72.5 175.5z" />
<glyph unicode="&#x2026;" horiz-adv-x="1177" d="M102 127q0 51 35 87t86 36t87 -36t36 -87t-36 -86t-87 -35t-86 35t-35 86zM467 127q0 51 35 87t86 36t87 -36t36 -87t-36 -86t-87 -35t-86 35t-35 86zM831 127q0 51 35 87t86 36t87 -36t36 -87t-36 -86t-87 -35t-86 35t-35 86z" />
<glyph unicode="&#x202f;" horiz-adv-x="383" />
<glyph unicode="&#x2039;" horiz-adv-x="765" d="M143 539l275 395h205l-236 -395l236 -402h-205z" />
<glyph unicode="&#x203a;" horiz-adv-x="765" d="M143 137l236 402l-236 395h205l275 -395l-275 -402h-205z" />
<glyph unicode="&#x205f;" horiz-adv-x="478" />
<glyph unicode="&#x20ac;" horiz-adv-x="1751" d="M82 805l31 149h108q40 178 158 320t288 220.5t359 78.5q169 0 321.5 -64t266.5 -178l-144 -168q-84 87 -200.5 136t-245.5 49q-203 0 -358.5 -107.5t-214.5 -286.5h827l-29 -149h-825q-2 -14 -2 -45q0 -48 6 -92h795l-29 -148h-719q74 -151 224 -241.5t327 -90.5 q147 0 273.5 64t211.5 176l138 -186q-117 -131 -280 -204t-345 -73q-274 0 -485.5 153t-294.5 402h-160l29 148h98q-8 52 -8 118v19h-121z" />
<glyph unicode="&#x2122;" horiz-adv-x="1742" d="M143 1409v119h580v-119h-234v-477h-122v477h-224zM772 1528h148l266 -336l264 336h149l-63 -96v-500h-133v350l-217 -281l-217 281v-350h-133v500z" />
<glyph unicode="&#x25fc;" horiz-adv-x="1064" d="M0 0v1065h1065v-1065h-1065z" />
</font>
</defs>
</svg>
